<svg width="104" height="104" viewBox="0 0 104 104" fill="none" xmlns="http://www.w3.org/2000/svg">
<g clip-path="url(#clip0_14035_10154)" filter="url(#filter0_d_14035_10154)">
<path d="M52 87C74.0914 87 92 69.0914 92 47C92 24.9086 74.0914 7 52 7C29.9086 7 12 24.9086 12 47C12 69.0914 29.9086 87 52 87Z" fill="#BE2BBB"/>
<path d="M50.3175 21.1898C50.5838 21.1673 50.8525 21.1498 51.1231 21.1367C50.8519 21.1486 50.5838 21.168 50.3175 21.1898Z" fill="#212121"/>
<path d="M63.3275 64.6645C63.3281 64.6645 63.3281 64.6645 63.3288 64.6651C71.4913 62.4132 76.6238 57.8313 79.035 53.247C79.035 53.247 75.7231 47.9832 73.6994 43.877C75.7231 47.9832 79.035 53.247 79.0338 53.247C76.6231 57.8313 71.4906 62.4132 63.3275 64.6645Z" fill="#212121"/>
<path d="M42.8776 63.9213C42.9876 63.8851 43.0957 63.8495 43.2026 63.8138C43.8801 63.5888 44.4851 63.3863 44.9401 63.222C44.9501 63.2182 44.9594 63.2151 44.9694 63.2113C45.0844 63.1695 45.1857 63.1307 45.2801 63.0938L44.9319 60.5257C41.3163 58.0245 38.7107 53.6676 38.0307 48.5401C37.9719 48.5482 37.9138 48.5582 37.8532 48.5582C37.1626 48.5582 36.6032 47.9988 36.6032 47.3082C36.6032 46.6282 37.1469 46.0776 37.8232 46.0613C37.8257 46.8413 37.8532 47.3082 37.8532 47.3082C37.8532 47.1395 37.8713 46.9882 37.8769 46.8251C38.3113 34.6651 54.7001 37.8638 59.6632 34.1445C60.2032 33.7401 60.6088 33.2538 60.8419 32.6563C61.7776 33.5538 62.6176 34.5876 63.3363 35.7376C63.4719 35.9551 63.6038 36.1763 63.7307 36.4013C65.2563 39.1026 66.1469 42.3595 66.1469 45.8645C66.1469 45.9363 66.1432 46.007 66.1426 46.0788C66.7301 46.1813 67.1769 46.6907 67.1769 47.307C67.1769 47.9832 66.6388 48.5307 65.9676 48.5526C65.2844 53.6745 62.6807 58.0257 59.0682 60.5251L58.7201 63.0932C59.1676 63.2676 59.8582 63.5013 60.6719 63.7713C60.9882 63.8763 61.3257 63.9882 61.6701 64.1026C61.6813 64.1063 61.6919 64.1101 61.7032 64.1138C68.8519 61.7263 73.4244 57.4907 75.6563 53.2457C75.6563 53.2457 69.7694 43.8888 68.8982 40.3932C66.4576 30.5651 60.4788 22.042 50.3119 21.1895C40.1507 22.042 34.1663 30.5651 31.7251 40.3938C30.8601 43.8888 24.9663 53.2463 24.9663 53.2463C27.3769 57.8307 32.5094 62.4126 40.6719 64.6638C41.4226 64.4051 42.1794 64.1532 42.8776 63.9213Z" fill="#212121"/>
<path d="M68.8975 40.3946C69.7688 43.8902 75.6557 53.2471 75.6557 53.2471C73.4238 57.4921 68.8519 61.7277 61.7025 64.1152C62.03 64.224 62.3625 64.3352 62.7007 64.4502C62.7188 64.4565 62.7363 64.4627 62.7544 64.4684C62.945 64.5334 63.1363 64.599 63.3275 64.6652C71.4907 62.414 76.6231 57.8321 79.0338 53.2477C79.0344 53.2477 75.7232 47.984 73.6994 43.8777C73.4463 43.3646 73.2138 42.869 73.01 42.4046C72.6707 41.6302 72.4119 40.9409 72.2757 40.3946C69.7025 30.0327 63.2 21.1152 52 21.1152C51.7038 21.1152 51.4125 21.1234 51.1238 21.1371C50.8525 21.1502 50.5844 21.1684 50.3182 21.1902C50.3157 21.1902 50.3132 21.1902 50.3113 21.1909C50.3113 21.1909 50.3113 21.1909 50.3119 21.1909C60.4782 22.0434 66.4569 30.5665 68.8975 40.3946Z" fill="#212121"/>
<path d="M67.42 67.4369C66.1119 70.5844 61.4912 75.0119 58.4994 76.8212C57.6681 77.3237 56.9612 77.6275 56.4881 77.6419C56.4681 77.2988 56.4181 76.9388 56.35 76.575C55.9762 74.6213 54.9431 72.5262 53.9844 72.0812C53.2662 72.0812 52.5912 72.2225 52.0012 72.2225C51.8919 72.2225 51.7768 72.2138 51.6625 72.2063C51.6618 72.2063 51.6612 72.2063 51.6606 72.2063C51.3887 72.1875 51.1025 72.1569 50.805 72.1281C50.78 72.1256 50.7581 72.1238 50.7331 72.1219C50.7337 72.1219 50.7344 72.1219 50.735 72.1219C50.5012 72.1 50.2637 72.0819 50.0181 72.0819C50.0175 72.0819 50.0175 72.0825 50.0169 72.0825C50.0169 72.0825 50.0175 72.0825 50.0181 72.0825C48.9425 72.8375 47.6281 75.5969 47.515 77.6425C47.4444 77.6406 47.3675 77.6313 47.2868 77.6163C47.2494 77.6094 47.2069 77.5969 47.1669 77.5875C47.1256 77.5775 47.0856 77.5694 47.0419 77.5569C44.2562 76.7481 37.1381 70.3006 36.305 66.5938C32.9875 67.4231 26.2381 69.2519 21.7406 73.1444C29.075 81.6256 39.9062 87 52 87C63.2275 87 73.3687 82.3681 80.6331 74.9181C77.3081 70.9294 71.5844 68.6831 67.42 67.4369ZM52 83.7656C51.0669 83.7656 50.3106 83.0094 50.3106 82.0763C50.3106 81.1431 51.0669 80.3869 52 80.3869C52.9331 80.3869 53.6894 81.1431 53.6894 82.0763C53.6894 83.0094 52.9331 83.7656 52 83.7656Z" fill="#C23527"/>
<path d="M67.42 67.4375C71.585 68.6837 77.3082 70.93 80.6338 74.9188C81.1944 74.3444 81.735 73.7513 82.2607 73.1438C77.7638 69.2519 71.0157 67.4231 67.6982 66.5938C67.6369 66.8613 67.5413 67.1444 67.42 67.4375Z" fill="#B33124"/>
<path d="M58.895 60.5117H58.8938V63.1036H58.895V60.5117Z" fill="#E6AFA0"/>
<path d="M56.3375 61.9759C54.9706 62.5022 53.5138 62.7897 52 62.7897C49.4244 62.7897 47.0119 61.9622 44.9319 60.5234L45.28 63.0916C45.2969 63.0853 45.3194 63.0772 45.335 63.0709C45.335 65.7991 48.0375 69.5497 51.6025 70.3628C51.7344 70.3734 51.8656 70.3909 51.9994 70.3909C53.2269 70.3909 54.3731 69.9166 55.3606 69.1772L56.3375 61.9759Z" fill="#E6AFA0"/>
<path d="M58.6381 63.5273C58.6512 63.3741 58.6643 63.2204 58.6643 63.0716C58.6799 63.0779 58.7018 63.0854 58.7187 63.0923L59.0668 60.5254C58.2093 61.1185 57.2962 61.6079 56.3374 61.9773L55.3618 69.1785C57.0743 67.8966 58.2943 65.8073 58.5887 63.9204C58.6081 63.7879 58.6249 63.6573 58.6381 63.5273Z" fill="#D9A597"/>
<path d="M37.8531 47.3074C37.8531 47.3074 37.8263 46.8405 37.8231 46.0605C37.1469 46.0768 36.6031 46.6274 36.6031 47.3074C36.6031 47.998 37.1625 48.5574 37.8531 48.5574C37.9138 48.5574 37.9719 48.548 38.0306 48.5393C37.9556 47.9762 37.9044 47.4037 37.8775 46.8237C37.8713 46.9874 37.8531 47.1387 37.8531 47.3074Z" fill="#992B1F"/>
<path d="M67.1769 47.3082C67.1769 46.692 66.7294 46.1826 66.1425 46.0801C66.1338 46.9207 66.075 47.747 65.9675 48.5545C66.6388 48.532 67.1769 47.9845 67.1769 47.3082Z" fill="#992B1F"/>
<path d="M56.3374 61.9783C57.2962 61.6089 58.2093 61.1195 59.0668 60.5264C59.0674 60.5264 59.0674 60.5258 59.0681 60.5258C62.6806 58.027 65.2843 53.6752 65.9674 48.5533C66.0749 47.7464 66.1337 46.9202 66.1424 46.0789C66.1431 46.007 66.1468 45.9364 66.1468 45.8645C66.1468 55.2133 59.8131 62.7914 51.9999 62.7914C51.5724 62.7914 51.1512 62.7589 50.7331 62.7145C57.9506 61.9477 63.6131 54.7014 63.6131 45.8652C63.6131 41.312 62.1074 37.1845 59.6631 34.1445C54.6999 37.8639 38.3112 34.6652 37.8774 46.8239C37.9043 47.4039 37.9562 47.9764 38.0306 48.5395C38.7112 53.667 41.3162 58.0245 44.9318 60.5252C47.0118 61.9639 49.4243 62.7914 51.9999 62.7914C53.5131 62.792 54.9699 62.5045 56.3374 61.9783Z" fill="#FFE1D9"/>
<path d="M50.7332 62.7144C51.1513 62.7587 51.5725 62.7913 52 62.7913C59.8132 62.7913 66.1469 55.2131 66.1469 45.8644C66.1469 42.3587 65.2563 39.1025 63.7307 36.4013C63.6038 36.1763 63.4719 35.955 63.3363 35.7375C62.6175 34.5875 61.7775 33.5537 60.8419 32.6562C60.6082 33.2537 60.2025 33.74 59.6632 34.1444C62.1075 37.1844 63.6132 41.3119 63.6132 45.865C63.6132 54.7012 57.9507 61.9475 50.7332 62.7144Z" fill="#F2D6CE"/>
<path d="M58.4987 76.8204C61.4912 75.0116 66.1118 70.5841 67.4193 67.436C67.5412 67.1429 67.6368 66.8598 67.6968 66.5923C67.6968 66.5923 67.6968 66.5923 67.6968 66.5916C67.5593 66.4598 67.3424 66.3166 67.0655 66.166C67.3424 66.3166 67.558 66.4591 67.6955 66.591C66.9893 69.7335 61.7693 74.8423 58.4987 76.8204Z" fill="#F5F5F5"/>
<path d="M43.2024 63.8126C43.8811 63.5882 44.4843 63.3857 44.9399 63.2207C44.4849 63.3857 43.8799 63.5882 43.2024 63.8126Z" fill="#F5F5F5"/>
<path d="M62.7012 64.4492C62.7193 64.4555 62.7368 64.4611 62.7549 64.4673C62.7368 64.4611 62.7187 64.4548 62.7012 64.4492Z" fill="#F5F5F5"/>
<path d="M47.0412 77.5549C46.5256 77.4024 45.8606 77.0555 45.1181 76.5755C45.4918 74.6218 46.7899 73.0962 47.7112 72.578C48.7887 71.9712 49.8993 72.088 50.0162 72.0812C50.0168 72.0812 50.0168 72.0805 50.0174 72.0805C50.2624 72.0805 50.5006 72.0987 50.7343 72.1205C50.9681 72.0993 51.2043 72.0812 51.4487 72.0812C51.5199 72.1143 51.5912 72.1555 51.6618 72.2055C51.7768 72.2137 51.8912 72.2218 52.0006 72.2218C52.5906 72.2218 53.2656 72.0805 53.9837 72.0805C54.9424 72.5255 55.9756 74.6205 56.3493 76.5743C59.6293 74.4493 64.4831 69.6137 65.1618 66.5912C64.3862 65.8443 61.0868 64.748 58.5881 63.9199C58.2937 65.8068 57.0737 67.8962 55.3612 69.178C54.3737 69.9174 53.2274 70.3918 51.9999 70.3918C51.8656 70.3918 51.7349 70.3749 51.6031 70.3637C51.6231 70.368 51.6424 70.3755 51.6618 70.3799C47.6849 70.4793 43.3431 66.8955 42.8774 63.9205C42.1793 64.1524 41.4224 64.4037 40.6712 64.6637C38.7343 65.3343 36.8631 66.0543 36.3043 66.5918C37.1374 70.2993 44.2562 76.7468 47.0412 77.5549Z" fill="#F5F5F5"/>
<path d="M51.6599 72.2051C51.3887 72.1857 51.1012 72.1551 50.8043 72.127C51.1018 72.1557 51.3881 72.1863 51.6599 72.2051Z" fill="#F5F5F5"/>
<path d="M47.2863 77.6147C47.2481 77.6078 47.2063 77.5959 47.1663 77.5859C47.2063 77.5953 47.2481 77.6078 47.2863 77.6147Z" fill="#F5F5F5"/>
<path d="M45.3356 63.0723C45.3193 63.0785 45.2975 63.0866 45.2806 63.0929C45.1862 63.1298 45.085 63.1679 44.97 63.2104C45.1043 63.161 45.23 63.1141 45.3356 63.0723Z" fill="#F5F5F5"/>
<path d="M58.6643 63.0723C58.6643 63.221 58.6512 63.3741 58.6381 63.5279C58.6537 63.3735 58.6643 63.221 58.6643 63.0723Z" fill="#F5F5F5"/>
<path d="M50.7344 72.122C50.7338 72.122 50.7332 72.122 50.7325 72.122C50.7575 72.1245 50.7794 72.1264 50.8044 72.1283C51.1013 72.1564 51.3888 72.1877 51.66 72.2064C51.6607 72.2064 51.6613 72.2064 51.6619 72.2064C51.5913 72.1564 51.52 72.1152 51.4488 72.082C51.2044 72.0827 50.9682 72.1008 50.7344 72.122Z" fill="#CCCCCC"/>
<path d="M45.3356 63.0723C45.2299 63.1141 45.1043 63.161 44.9693 63.2104C44.9593 63.2141 44.9499 63.2173 44.9399 63.221C44.4837 63.3866 43.8812 63.5885 43.2024 63.8129C43.0956 63.8485 42.9881 63.8835 42.8774 63.9204V63.921C43.3431 66.896 47.6849 70.4798 51.6618 70.3804C51.6418 70.376 51.6224 70.3685 51.6031 70.3641C48.0381 69.551 45.3356 65.8004 45.3356 63.0723Z" fill="#E6E6E6"/>
<path d="M47.7112 72.5779C46.7899 73.096 45.4918 74.6216 45.118 76.5754C45.8605 77.056 46.5255 77.4029 47.0412 77.5547C47.0849 77.5679 47.1243 77.5754 47.1662 77.5854C47.2062 77.5954 47.248 77.6072 47.2862 77.6141C47.3674 77.6291 47.4437 77.6385 47.5143 77.6404C47.6274 75.5947 48.9418 72.8354 50.0174 72.0804C50.0174 72.0804 50.0168 72.0804 50.0162 72.0804C49.8993 72.0885 48.7887 71.971 47.7112 72.5779Z" fill="#E6E6E6"/>
<path d="M62.7543 64.4673C62.7361 64.461 62.7186 64.4554 62.7005 64.4491C62.3624 64.3341 62.0299 64.2229 61.7024 64.1141C61.6911 64.1104 61.6805 64.1066 61.6693 64.1029C61.3255 63.9885 60.988 63.8766 60.6711 63.7716C59.8574 63.501 59.1668 63.2679 58.7193 63.0935C58.7186 63.0935 58.7186 63.0935 58.718 63.0929C58.7018 63.0866 58.6799 63.0785 58.6636 63.0723C58.6636 63.221 58.653 63.3735 58.6374 63.5279C58.6243 63.6579 58.6074 63.7885 58.5874 63.9204C61.0861 64.7485 64.3855 65.8448 65.1611 66.5916C64.4824 69.6141 59.6286 74.4498 56.3486 76.5748C56.4168 76.9385 56.4668 77.2985 56.4868 77.6416C56.9599 77.6273 57.6668 77.3235 58.498 76.821C61.7686 74.8429 66.9886 69.7341 67.6955 66.5916C67.558 66.4598 67.3424 66.3173 67.0655 66.1666C66.2143 65.7041 64.7899 65.1704 63.328 64.6641C63.3274 64.6641 63.3274 64.6641 63.3268 64.6635C63.1368 64.5979 62.9455 64.5323 62.7543 64.4673Z" fill="#E6E6E6"/>
<path d="M52 83.7635C52.9331 83.7635 53.6894 83.0072 53.6894 82.0741C53.6894 81.1411 52.9331 80.3848 52 80.3848C51.067 80.3848 50.3107 81.1411 50.3107 82.0741C50.3107 83.0072 51.067 83.7635 52 83.7635Z" fill="#242424"/>
<path d="M45.125 46.1133C46.5057 46.1133 47.625 45.2738 47.625 44.2383C47.625 43.2027 46.5057 42.3633 45.125 42.3633C43.7443 42.3633 42.625 43.2027 42.625 44.2383C42.625 45.2738 43.7443 46.1133 45.125 46.1133Z" fill="#F5F5F5"/>
<path d="M45.125 45.4883C45.8154 45.4883 46.375 44.9286 46.375 44.2383C46.375 43.5479 45.8154 42.9883 45.125 42.9883C44.4346 42.9883 43.875 43.5479 43.875 44.2383C43.875 44.9286 44.4346 45.4883 45.125 45.4883Z" fill="#734822"/>
<path d="M57.625 46.1133C59.0057 46.1133 60.125 45.2738 60.125 44.2383C60.125 43.2027 59.0057 42.3633 57.625 42.3633C56.2443 42.3633 55.125 43.2027 55.125 44.2383C55.125 45.2738 56.2443 46.1133 57.625 46.1133Z" fill="#F5F5F5"/>
<path d="M57.625 45.4883C58.3154 45.4883 58.875 44.9286 58.875 44.2383C58.875 43.5479 58.3154 42.9883 57.625 42.9883C56.9346 42.9883 56.375 43.5479 56.375 44.2383C56.375 44.9286 56.9346 45.4883 57.625 45.4883Z" fill="#734822"/>
</g>
<defs>
<filter id="filter0_d_14035_10154" x="0" y="0" width="104" height="104" filterUnits="userSpaceOnUse" color-interpolation-filters="sRGB">
<feFlood flood-opacity="0" result="BackgroundImageFix"/>
<feColorMatrix in="SourceAlpha" type="matrix" values="0 0 0 0 0 0 0 0 0 0 0 0 0 0 0 0 0 0 127 0" result="hardAlpha"/>
<feOffset dy="5"/>
<feGaussianBlur stdDeviation="6"/>
<feComposite in2="hardAlpha" operator="out"/>
<feColorMatrix type="matrix" values="0 0 0 0 0 0 0 0 0 0 0 0 0 0 0 0 0 0 0.12 0"/>
<feBlend mode="normal" in2="BackgroundImageFix" result="effect1_dropShadow_14035_10154"/>
<feBlend mode="normal" in="SourceGraphic" in2="effect1_dropShadow_14035_10154" result="shape"/>
</filter>
<clipPath id="clip0_14035_10154">
<rect width="80" height="80" fill="white" transform="translate(12 7)"/>
</clipPath>
</defs>
</svg>
